<svg width="1440" height="447" viewBox="0 0 1440 447" fill="none" xmlns="http://www.w3.org/2000/svg">
<mask id="mask0_68_1199" style="mask-type:alpha" maskUnits="userSpaceOnUse" x="0" y="0" width="1441" height="447">
<rect width="1441" height="447" transform="matrix(-1 0 0 1 1441 0)" fill="#025B63"/>
</mask>
<g mask="url(#mask0_68_1199)">
<path d="M72.8316 517.944L375.339 215.437L788.573 326.162L899.298 739.396L596.791 1041.9L183.557 931.178L72.8316 517.944Z" stroke="#197B8A"/>
<path d="M575.654 381.101L878.162 78.5928L1291.4 189.318L1402.12 602.552L1099.61 905.06L686.38 794.334L575.654 381.101Z" stroke="#197B8A"/>
<path d="M-37.8725 104.792L264.635 -197.716L677.869 -86.9902L788.594 326.243L486.087 628.751L72.8531 518.026L-37.8725 104.792Z" stroke="#197B8A"/>
<path d="M464.95 -32.0477L767.458 -334.556L1180.69 -223.83L1291.42 189.403L988.909 491.911L575.676 381.186L464.95 -32.0477Z" stroke="#197B8A"/>
<path d="M129.04 727.718L431.547 425.21L844.781 535.936L955.506 949.169L652.999 1251.68L239.765 1140.95L129.04 727.718Z" stroke="#197B8A"/>
<path d="M631.863 589.874L934.37 287.366L1347.6 398.092L1458.33 811.325L1155.82 1113.83L742.588 1003.11L631.863 589.874Z" stroke="#197B8A"/>
<path d="M18.336 314.566L320.844 12.0577L734.077 122.783L844.803 536.017L542.295 838.525L129.062 727.799L18.336 314.566Z" stroke="#197B8A"/>
<path d="M521.159 176.724L823.667 -125.784L1236.9 -15.0585L1347.63 398.175L1045.12 700.683L631.885 589.957L521.159 176.724Z" stroke="#197B8A"/>
<path d="M218.37 479.216L520.878 176.708L934.111 287.434L1044.84 700.667L742.329 1003.17L329.096 892.449L218.37 479.216Z" stroke="#197B8A"/>
<path d="M793.193 342.372L1095.7 39.8643L1508.93 150.59L1619.66 563.823L1317.15 866.331L903.919 755.606L793.193 342.372Z" stroke="#197B8A"/>
<path d="M107.667 66.0636L410.175 -236.444L823.408 -125.719L934.134 287.515L631.626 590.023L218.392 479.297L107.667 66.0636Z" stroke="#197B8A"/>
<path d="M622.49 -70.7801L924.997 -373.288L1338.23 -262.562L1448.96 150.671L1146.45 453.179L733.215 342.453L622.49 -70.7801Z" stroke="#197B8A"/>
<path d="M-88.3364 561.128L214.172 258.62L627.405 369.346L738.131 782.579L435.623 1085.09L22.3892 974.362L-88.3364 561.128Z" stroke="#197B8A"/>
<path d="M427.487 424.286L729.995 121.778L1143.23 232.504L1253.95 645.737L951.446 948.245L538.212 837.52L427.487 424.286Z" stroke="#197B8A"/>
<path d="M-199.04 147.978L103.468 -154.53L516.701 -43.8046L627.427 369.429L324.919 671.937L-88.3144 561.211L-199.04 147.978Z" stroke="#197B8A"/>
<path d="M316.783 12.1339L619.291 -290.374L1032.52 -179.648L1143.25 233.585L840.742 536.093L427.509 425.367L316.783 12.1339Z" stroke="#197B8A"/>
</g>
</svg>
