<svg width="107" height="38" viewBox="0 0 38 38" fill="none" xmlns="http://www.w3.org/2000/svg">
<path d="M28.9107 0H9.12968C4.0875 0 0 4.08316 0 9.12V28.88C0 33.9168 4.0875 38 9.12968 38H28.9107C33.9528 38 38.0403 33.9168 38.0403 28.88V9.12C38.0403 4.08316 33.9528 0 28.9107 0Z" fill="url(#paint0_linear_754_2476)"/>
<path fill-rule="evenodd" clip-rule="evenodd" d="M19.0202 31.16C25.7431 31.16 31.1931 25.7158 31.1931 19C31.1931 12.2842 25.7431 6.84 19.0202 6.84C12.2973 6.84 6.84729 12.2842 6.84729 19C6.84729 25.7158 12.2973 31.16 19.0202 31.16ZM16.8719 12.5623H21.1682V16.8992H16.8724V21.1006H21.1682V25.4375H16.8719V21.2361H12.5761V16.8992H16.8719V12.5623ZM21.1689 16.8992H25.4652V21.2361H21.1689V16.8992Z" fill="black"/>
<defs>
<linearGradient id="paint0_linear_754_2476" x1="38.0403" y1="-1.13249e-06" x2="0.0403668" y2="38.0403" gradientUnits="userSpaceOnUse">
<stop offset="0.395833" stop-color="#A9FFE0"/>
<stop offset="1" stop-color="#86D5FF"/>
</linearGradient>
</defs>
</svg>
