<svg width="24" height="24" viewBox="0 0 24 24" fill="none" xmlns="http://www.w3.org/2000/svg">
<path d="M11.1886 5.63081C11.2055 3.36395 9.85309 1.31702 7.7569 0.437341C5.67761 -0.442335 3.26022 0.031334 1.65427 1.62152C0.048312 3.2117 -0.441927 5.63081 0.420217 7.7285C1.28236 9.82619 3.32784 11.1964 5.59308 11.1964H11.1886V5.63081ZM12.8114 5.63081C12.7945 3.36395 14.1469 1.31702 16.2431 0.437341C18.3224 -0.442335 20.7398 0.031334 22.3457 1.62152C23.9517 3.2117 24.4419 5.63081 23.5798 7.7285C22.7176 9.82619 20.6722 11.1964 18.4069 11.1964H12.8114V5.63081ZM12.8114 18.3692C12.7945 20.636 14.1469 22.683 16.2431 23.5627C18.3393 24.4423 20.7398 23.9687 22.3457 22.3785C23.9517 20.7883 24.4419 18.3692 23.5798 16.2715C22.7176 14.1738 20.6722 12.8035 18.4069 12.8035H12.8114V18.3692ZM5.60999 22.3616C7.82452 22.3616 9.61642 20.5853 9.63333 18.3692V14.3768H5.60999C3.41237 14.3768 1.62046 16.17 1.62046 18.3692C1.62046 20.5684 3.39546 22.3616 5.60999 22.3616ZM11.1886 18.3692C11.2055 20.636 9.85309 22.683 7.7569 23.5627C5.6607 24.4423 3.26022 23.9687 1.65427 22.3785C0.048312 20.7883 -0.441927 18.3692 0.420217 16.2715C1.28236 14.1738 3.32784 12.8035 5.59308 12.8035H11.1886V18.3692Z" fill="#43B02A"/>
</svg>
