<svg width="20" height="20" viewBox="0 0 20 20" fill="#0096EF" xmlns="http://www.w3.org/2000/svg">
<path d="M10 0C4.47684 0 0 4.47714 0 10C0 15.5232 4.47714 20 10 20C15.5232 20 20 15.5229 20 10C20 4.47714 15.5229 0 10 0ZM14.5606 8.78661L9.95793 13.389C9.6649 13.682 9.24667 13.8492 8.87014 13.8492C8.45161 13.8492 8.07509 13.682 7.78235 13.389L5.48102 11.0876C4.85353 10.4601 4.85353 9.49761 5.48102 8.87007C6.10852 8.24257 7.07105 8.24257 7.6986 8.87007L8.91184 10.0833L12.3846 6.61051C13.0121 5.98301 13.9747 5.98301 14.6022 6.61051C15.23 7.23829 15.1462 8.20084 14.5605 8.78661H14.5606Z"/>
</svg>
