<svg width="559" height="424" viewBox="0 0 559 424" fill="none" xmlns="http://www.w3.org/2000/svg">
<g clip-path="url(#clip0_3262_11931)">
<path d="M502.565 251.491C491.403 251.491 480.491 248.178 471.211 241.971C461.93 235.764 454.696 226.942 450.425 216.621C446.153 206.299 445.036 194.942 447.213 183.985C449.391 173.028 454.766 162.963 462.659 155.063C470.551 147.163 480.607 141.783 491.555 139.604C502.502 137.424 513.849 138.543 524.162 142.818C534.474 147.094 543.288 154.334 549.489 163.623C555.69 172.912 559 183.833 559 195.005C558.981 209.98 553.029 224.336 542.449 234.925C531.87 245.514 517.526 251.471 502.565 251.491ZM502.565 141.871C492.073 141.871 481.818 144.984 473.094 150.818C464.371 156.652 457.572 164.944 453.557 174.645C449.543 184.347 448.492 195.022 450.539 205.321C452.586 215.62 457.638 225.08 465.056 232.505C472.475 239.93 481.926 244.986 492.216 247.035C502.506 249.084 513.171 248.032 522.864 244.014C532.557 239.995 540.841 233.19 546.67 224.459C552.499 215.728 555.61 205.464 555.61 194.963C555.582 180.89 549.985 167.402 540.043 157.451C530.101 147.501 516.625 141.898 502.565 141.871Z" fill="#F0EAE8"/>
<path d="M397.452 501C397.469 488.058 394.689 475.266 389.303 463.5C383.917 451.734 376.053 441.273 366.249 432.834C369.178 420.988 368.461 408.532 364.192 397.101C359.923 385.67 352.302 375.798 342.327 368.78C344.726 360.996 344.45 352.631 341.543 345.023C338.636 337.414 333.265 331 326.289 326.805L319.237 117.924H296.043L288.981 326.805C282.002 330.999 276.629 337.412 273.72 345.021C270.811 352.629 270.534 360.994 272.932 368.78C262.959 375.797 255.339 385.668 251.07 397.097C246.801 408.525 246.083 420.979 249.01 432.823C239.202 441.261 231.335 451.723 225.949 463.492C220.563 475.26 217.785 488.056 217.807 501" fill="white"/>
<path d="M333.247 202.323H282.282V113.159C282.281 107.134 284.169 101.261 287.68 96.3671L298.404 81.4389C299.468 79.9475 300.873 78.732 302.501 77.8933C304.129 77.0547 305.934 76.6172 307.765 76.6172C309.596 76.6172 311.4 77.0547 313.028 77.8933C314.657 78.732 316.061 79.9475 317.125 81.4389L327.849 96.3671C331.36 101.261 333.248 107.134 333.247 113.159V202.323Z" fill="#0096EF"/>
<path d="M325.769 220.937H289.792L282.313 202.323H333.247L325.769 220.937Z" fill="#0096EF"/>
<path d="M313.496 127.109H303.251C300.787 127.109 298.789 129.109 298.789 131.575V165.013C298.789 167.48 300.787 169.479 303.251 169.479H313.496C315.96 169.479 317.958 167.48 317.958 165.013V131.575C317.958 129.109 315.96 127.109 313.496 127.109Z" fill="#2F2F2F"/>
<path d="M333.247 202.323H354.465C355.229 202.323 355.962 202.019 356.502 201.478C357.043 200.937 357.346 200.204 357.346 199.439V186.478C357.352 185.402 356.985 184.357 356.306 183.522L333.247 156.153V202.323Z" fill="#0096EF"/>
<path d="M282.314 202.323H261.065C260.301 202.323 259.568 202.019 259.028 201.478C258.487 200.937 258.184 200.204 258.184 199.439V186.478C258.174 185.401 258.542 184.355 259.224 183.522L282.314 156.153V202.323Z" fill="#0096EF"/>
<path d="M111.748 482.255C89.6435 482.255 68.0358 475.695 49.657 463.403C31.2782 451.111 16.9538 433.641 8.49541 413.201C0.0369917 392.761 -2.17559 370.27 2.13748 348.571C6.45054 326.872 17.0955 306.941 32.7263 291.298C48.357 275.655 68.2714 265.002 89.9511 260.687C111.631 256.372 134.102 258.589 154.523 267.057C174.944 275.525 192.398 289.863 204.676 308.26C216.955 326.656 223.508 348.284 223.506 370.408C223.47 400.062 211.684 428.492 190.733 449.46C169.781 470.428 141.376 482.222 111.748 482.255ZM111.748 263.026C90.5285 263.026 69.7859 269.324 52.1428 281.123C34.4997 292.922 20.7486 309.693 12.6284 329.314C4.50816 348.936 2.38354 370.527 6.52319 391.357C10.6628 412.187 20.8808 431.32 35.8851 446.338C50.8893 461.356 70.0058 471.583 90.8173 475.726C111.629 479.869 133.2 477.743 152.804 469.615C172.408 461.488 189.164 447.724 200.953 430.066C212.741 412.407 219.034 391.646 219.034 370.408C219.003 341.938 207.69 314.642 187.577 294.511C167.463 274.379 140.192 263.056 111.748 263.026Z" fill="#EBEBEB"/>
<path d="M439.971 381.795C485.604 381.795 522.596 344.77 522.596 299.096C522.596 253.423 485.604 216.397 439.971 216.397C394.338 216.397 357.346 253.423 357.346 299.096C357.346 344.77 394.338 381.795 439.971 381.795Z" fill="#D6FB5E"/>
<path d="M170.68 217.595C208.046 217.595 238.338 187.276 238.338 149.876C238.338 112.476 208.046 82.1572 170.68 82.1572C133.313 82.1572 103.021 112.476 103.021 149.876C103.021 187.276 133.313 217.595 170.68 217.595Z" fill="#8696A8"/>
<path d="M60.5129 93.3591C86.2704 93.3591 107.151 72.4599 107.151 46.6795C107.151 20.8991 86.2704 0 60.5129 0C34.7555 0 13.875 20.8991 13.875 46.6795C13.875 72.4599 34.7555 93.3591 60.5129 93.3591Z" fill="#FA5DB2"/>
<path d="M406.247 82.356L397.5 60.0781L406.247 37.8105L414.984 60.0781L406.247 82.356Z" fill="white"/>
<path d="M428.495 60.0786L406.248 68.8336L384 60.0786L406.248 51.334L428.495 60.0786Z" fill="white"/>
<path d="M274.784 25.6199L271.195 16.4797L274.784 7.3291L278.382 16.4797L274.784 25.6199Z" fill="white"/>
<path d="M283.925 16.4792L274.782 20.0708L265.65 16.4792L274.782 12.8877L283.925 16.4792Z" fill="white"/>
</g>
<defs>
<clipPath id="clip0_3262_11931">
<rect width="559" height="424" fill="white"/>
</clipPath>
</defs>
</svg>
