<svg width="173" height="34" viewBox="0 0 173 34" fill="none" xmlns="http://www.w3.org/2000/svg">
<path d="M83.0858 6.4375V26.8695H80.3364C80.3364 21.1649 80.3364 12.6508 80.3364 6.4375H83.0858Z" fill="#F6F5F5"/>
<path d="M5.78091 11.2635L14.7344 6.53705L23.6855 11.2635V4.72646L14.7321 0L0 7.77878V19.1094L5.78091 22.1594V11.2635Z" fill="#F6F5F5"/>
<path d="M23.6859 11.2656V15.7331L14.8804 20.381V26.8047L14.7324 26.8833L10.2834 24.534L5.78125 22.1569V28.6939L14.7347 33.4204L20.6613 30.2894V23.8657L29.4668 19.2178V14.3179L23.6859 11.2656Z" fill="#F6F5F5"/>
<path d="M56.8149 6.44531H41.0308V26.8704H43.9235C43.9235 25.2726 43.9235 22.9972 43.9235 21.0155H56.8473L59.2684 18.5459V8.8941L56.8149 6.44531ZM56.3409 17.4198L55.6472 18.1135H43.9235V9.35657H55.6495L56.3432 10.0503L56.3409 17.4198Z" fill="#F6F5F5"/>
<path d="M77.4268 14.7115L75.0405 12.2812H64.5863L62.186 14.6607C62.186 17.6321 62.186 21.4613 62.186 24.4558L64.5701 26.87H75.0451L77.4338 24.4466C77.4314 21.4475 77.4291 17.4586 77.4268 14.7115ZM74.6751 23.4153L73.9814 24.109H65.5968L64.9031 23.4153V15.7498L65.5968 15.0561H73.9814L74.6751 15.7498V23.4153Z" fill="#F6F5F5"/>
<path d="M101.277 24.8962C99.6278 23.2591 97.3455 20.9906 95.9327 19.5778C97.438 18.0817 99.7041 15.8248 101.272 14.2593C101.272 13.3205 101.272 12.2684 101.272 12.2684H99.3226L93.396 18.1695H88.7713C88.7713 14.7588 88.7713 9.51438 88.7713 6.42969H86.0381V26.8617H88.7713C88.7713 25.3286 88.7713 22.6417 88.7713 20.9374H93.396L99.3226 26.8594H101.283C101.283 26.8594 101.274 25.8489 101.277 24.8962Z" fill="#F6F5F5"/>
<path d="M134.367 12.2812H121.54V32.6994H124.269V26.8746H134.388L136.774 24.4766V14.7115L134.367 12.2812ZM134.022 23.4176L133.328 24.1113H124.31V15.0838H133.328L134.022 15.7775V23.4176Z" fill="#F6F5F5"/>
<path d="M116.229 12.2812C113.165 12.2812 108.848 12.2812 105.823 12.2812L103.839 14.2629L105.728 16.2331C105.888 16.0851 106.443 15.5394 106.917 15.0769H115.188L115.882 15.7706V18.2263C113.022 18.2263 108.526 18.2263 105.784 18.2101L103.409 20.6058C103.409 21.8221 103.409 23.3991 103.409 24.4882C104.103 25.1819 105.053 26.1346 105.8 26.8815H118.648V14.73L116.229 12.2812ZM115.891 24.1298H106.85L106.156 23.4361V21.6648L106.85 20.9711H115.891V24.1298Z" fill="#F6F5F5"/>
<path d="M160.173 26.8713H173V6.45312H170.262V12.2733H160.159L157.775 14.6828V24.4479L160.173 26.8713ZM160.518 15.7419L161.212 15.0482H170.23V24.0664H161.212L160.518 23.3727V15.7419Z" fill="#F6F5F5"/>
<path d="M152.456 12.2812C149.392 12.2812 145.075 12.2812 142.05 12.2812L140.064 14.2629L141.953 16.2331C142.113 16.0851 142.668 15.5394 143.142 15.0769H151.413L152.107 15.7706V18.2263C149.246 18.2263 144.751 18.2263 142.009 18.2101L139.643 20.6058C139.643 21.8221 139.643 23.3991 139.643 24.4882C140.337 25.1819 141.287 26.1346 142.034 26.8815H154.882V14.73L152.456 12.2812ZM152.116 24.1298H143.075L142.381 23.4361V21.6648L143.075 20.9711H152.116V24.1298Z" fill="#F6F5F5"/>
</svg>
