<svg width="22" height="24" viewBox="0 0 22 24" fill="none" xmlns="http://www.w3.org/2000/svg">
<g clip-path="url(#clip0_2568_213)">
<path d="M10.9991 5.03382C13.3291 5.03382 15.2179 3.90696 15.2179 2.51691C15.2179 1.12686 13.3291 0 10.9991 0C8.66911 0 6.78027 1.12686 6.78027 2.51691C6.78027 3.90696 8.66911 5.03382 10.9991 5.03382Z" fill="#E6007A"/>
<path d="M10.9991 23.9983C13.3291 23.9983 15.2179 22.8714 15.2179 21.4814C15.2179 20.0913 13.3291 18.9645 10.9991 18.9645C8.66911 18.9645 6.78027 20.0913 6.78027 21.4814C6.78027 22.8714 8.66911 23.9983 10.9991 23.9983Z" fill="#E6007A"/>
<path d="M5.11985 8.51781C6.28484 6.44801 6.27728 4.2063 5.10296 3.51081C3.92863 2.81531 2.03223 3.9294 0.867231 5.99919C-0.297769 8.06899 -0.290207 10.3107 0.88412 11.0062C2.05845 11.7017 3.95485 10.5876 5.11985 8.51781Z" fill="#E6007A"/>
<path d="M21.1292 17.999C22.2942 15.9292 22.2873 13.6878 21.1137 12.9928C19.9402 12.2978 18.0444 13.4123 16.8794 15.482C15.7144 17.5518 15.7214 19.7932 16.8949 20.4882C18.0684 21.1832 19.9642 20.0687 21.1292 17.999Z" fill="#E6007A"/>
<path d="M5.10369 20.4876C6.27802 19.7921 6.28558 17.5504 5.12058 15.4806C3.95558 13.4108 2.05918 12.2967 0.884852 12.9922C-0.289475 13.6877 -0.297036 15.9294 0.867963 17.9992C2.03296 20.069 3.92936 21.1831 5.10369 20.4876Z" fill="#E6007A"/>
<path d="M21.1147 11.0068C22.2882 10.3117 22.2952 8.07041 21.1302 6.00062C19.9652 3.93082 18.0694 2.81636 16.8959 3.51138C15.7223 4.20641 15.7154 6.44774 16.8804 8.51753C18.0454 10.5873 19.9412 11.7018 21.1147 11.0068Z" fill="#E6007A"/>
</g>
<defs>
<clipPath id="clip0_2568_213">
<rect width="22" height="24" fill="white"/>
</clipPath>
</defs>
</svg>
