<svg width="480" height="422" viewBox="0 0 480 422" fill="none" xmlns="http://www.w3.org/2000/svg">
<g clip-path="url(#clip0_3547_15465)">
<path d="M243.258 458.633C199.418 458.632 156.563 445.659 120.112 421.357C83.6612 397.054 55.2509 362.512 38.474 322.099C21.697 281.686 17.3067 237.216 25.8583 194.314C34.4099 151.411 55.5192 112.002 86.5171 81.0693C107.068 60.385 131.511 43.9545 158.442 32.7209C185.374 21.4873 214.264 15.6718 243.454 15.6084C272.644 15.545 301.559 21.2349 328.539 32.3514C355.519 43.4679 380.034 59.7921 400.674 80.387C421.315 100.982 437.676 125.442 448.818 152.362C459.959 179.283 465.662 208.134 465.6 237.26C465.537 266.386 459.709 295.212 448.451 322.085C437.194 348.957 420.727 373.346 399.998 393.852C379.462 414.454 355.035 430.788 328.131 441.908C301.226 453.027 272.379 458.712 243.258 458.633ZM243.258 17.1289C121.494 17.1289 22.4356 115.969 22.4356 237.465C22.4356 358.96 121.494 457.8 243.258 457.8C365.021 457.8 464.079 358.96 464.079 237.465C464.079 115.969 365.021 17.1289 243.258 17.1289Z" fill="#F45A34"/>
<path d="M66.0001 121.262C83.8941 121.262 98.4001 107.017 98.4001 89.4456C98.4001 71.874 83.8941 57.6294 66.0001 57.6294C48.1061 57.6294 33.6001 71.874 33.6001 89.4456C33.6001 107.017 48.1061 121.262 66.0001 121.262Z" fill="#EBEBEB"/>
<path d="M60.697 51.8745C82.3594 49.5992 101.157 63.1333 104.043 85.8124C106.799 107.42 93.3533 125.945 71.8356 129.182C50.3179 132.418 31.5848 119.229 28.0769 95.9482C24.692 73.5921 39.7218 55.4121 60.697 51.8745ZM63.3515 66.6562C60.3281 67.0599 59.8869 67.2214 59.9954 70.2232C60.0822 72.5352 58.708 73.2031 57.3121 74.2526C53.3412 77.1884 51.5258 81.6729 52.7337 85.7023C54.3032 90.928 58.18 93.6143 62.5993 93.717C64.6678 93.7611 66.7509 93.5482 68.8195 93.5776C70.5626 93.5776 71.662 94.5244 72.2623 96.2565C72.7614 97.7244 72.9133 98.9868 71.9368 100.22C70.1503 102.495 65.232 103.42 63.0549 101.482C61.4637 100.058 59.9882 100.139 58.2596 100.433C55.9523 100.829 55.1784 102.187 56.4296 104.044C57.8301 106.314 60.0229 107.965 62.5703 108.668C63.9446 109.005 65.2392 109.402 65.3984 111.266C65.4924 112.433 65.449 114.018 67.0764 114.099C68.464 114.092 69.8431 113.879 71.1702 113.468C71.3802 113.35 71.5571 113.179 71.6837 112.973C71.8103 112.766 71.8825 112.529 71.8934 112.286C70.8158 108.924 73.2749 107.846 75.264 106.084C80.5005 101.453 80.3848 94.8547 76.8552 91.0601C74.4683 88.506 71.6114 87.0821 68.0962 87.2583C66.5339 87.339 64.9572 87.728 63.4166 87.6179C62.5321 87.6078 61.6772 87.2929 60.9924 86.7247C60.3077 86.1565 59.8336 85.3689 59.6482 84.4913C59.2721 82.9133 59.1347 81.3499 60.6464 80.1536C62.5558 78.6857 67.4814 78.1866 69.3981 79.8527C70.9821 81.2252 72.4793 81.1224 74.2296 80.8729C75.8353 80.638 76.2331 79.7573 75.8426 78.2747C75.5025 76.7118 74.6855 75.2975 73.5077 74.2328C72.33 73.1682 70.8515 72.5074 69.2824 72.3444C67.1125 72.0434 66.2157 71.1921 66.1216 69.1003C66.0421 67.2214 65.3405 66.003 63.3298 66.6562H63.3515Z" fill="#303030"/>
<path d="M255.155 310.379C208.607 310.379 170.871 272.602 170.871 226.052C170.871 179.502 208.607 141.724 255.155 141.724C301.702 141.724 339.438 179.502 339.438 226.052C339.438 272.602 301.702 310.379 255.155 310.379Z" fill="#EBEBEB" stroke="#303030" stroke-width="4"/>
<path d="M240.546 324.995C193.999 324.995 156.262 287.218 156.262 240.668C156.262 194.118 193.999 156.341 240.546 156.341C287.093 156.341 324.829 194.118 324.829 240.668C324.829 287.218 287.093 324.995 240.546 324.995Z" fill="#EBEBEB" stroke="#303030" stroke-width="4"/>
<path d="M225.937 339.612C179.39 339.612 141.653 301.834 141.653 255.284C141.653 208.735 179.39 170.957 225.937 170.957C272.484 170.957 310.22 208.735 310.22 255.284C310.22 301.834 272.484 339.612 225.937 339.612Z" fill="#EBEBEB" stroke="#303030" stroke-width="4"/>
<path d="M225.937 318.601C190.988 318.601 162.653 290.236 162.653 255.284C162.653 220.333 190.988 191.968 225.937 191.968C260.886 191.968 289.22 220.333 289.22 255.284C289.22 290.236 260.886 318.601 225.937 318.601Z" fill="#EBEBEB" stroke="#303030" stroke-width="4"/>
<path d="M130.226 91.4649L50.5601 135.999C49.4693 136.609 49.08 137.986 49.6907 139.076L76.4672 186.842C77.0779 187.931 78.4572 188.32 79.5481 187.71L159.214 143.176C160.305 142.566 160.694 141.188 160.083 140.099L133.307 92.3331C132.696 91.2438 131.317 90.8551 130.226 91.4649Z" fill="#F45A34"/>
<path d="M149.887 121.904L66.2715 168.646L72.6838 180.085L156.3 133.342L149.887 121.904Z" fill="#EBEBEB"/>
<path d="M381.72 453.831H381.366C381.018 453.788 380.682 453.677 380.378 453.503C380.074 453.329 379.808 453.096 379.596 452.818L312.553 366.187C312.122 365.626 311.931 364.918 312.022 364.218C312.113 363.518 312.479 362.882 313.04 362.45L360.658 325.918C360.936 325.704 361.253 325.546 361.593 325.456C361.932 325.365 362.286 325.342 362.634 325.389C363.337 325.483 363.975 325.847 364.411 326.402L431.447 413.034C431.878 413.594 432.069 414.302 431.978 415.002C431.886 415.702 431.521 416.338 430.96 416.77L383.342 453.295C382.875 453.646 382.305 453.835 381.72 453.831ZM362.288 326.703C361.991 326.703 361.703 326.801 361.469 326.982L313.851 363.514C313.711 363.621 313.593 363.755 313.505 363.908C313.417 364.06 313.359 364.229 313.337 364.404C313.314 364.578 313.327 364.756 313.373 364.926C313.419 365.096 313.499 365.255 313.608 365.394L380.643 452.025C380.861 452.306 381.182 452.491 381.535 452.539C381.711 452.562 381.89 452.549 382.061 452.503C382.232 452.456 382.391 452.376 382.531 452.267L430.149 415.743C430.289 415.635 430.407 415.502 430.495 415.349C430.584 415.196 430.641 415.028 430.663 414.853C430.686 414.679 430.674 414.501 430.627 414.331C430.581 414.161 430.501 414.002 430.392 413.863L363.357 327.232C363.138 326.953 362.818 326.771 362.465 326.725L362.288 326.703Z" fill="#303030"/>
<path d="M324.212 355.237L350.851 334.736L353.749 338.491C354.017 338.838 354.135 339.277 354.079 339.712C354.023 340.147 353.796 340.542 353.448 340.809L329.432 359.292C329.084 359.56 328.644 359.678 328.208 359.622C327.773 359.566 327.378 359.339 327.11 358.992L324.212 355.237Z" fill="#303030"/>
<path d="M432 439.424C451.219 439.424 466.8 423.835 466.8 404.606C466.8 385.377 451.219 369.788 432 369.788C412.78 369.788 397.2 385.377 397.2 404.606C397.2 423.835 412.78 439.424 432 439.424Z" fill="#303030"/>
<path d="M442.162 363.547C465.512 369.766 479.732 390.983 473.887 415.233C468.316 438.346 447.141 451.913 423.576 446.727C400.012 441.54 385.71 420.699 391.155 395.587C396.371 371.47 419.026 358.877 442.162 363.547ZM439.15 379.659C435.851 378.87 435.333 378.87 434.282 381.968C433.468 384.358 431.774 384.499 429.917 385.015C424.649 386.491 421.038 390.29 420.706 394.879C420.306 400.817 423.273 405.089 427.816 406.933C429.946 407.804 432.181 408.409 434.319 409.25C436.117 409.987 436.901 411.338 436.849 413.344C436.805 414.997 436.457 416.376 434.963 417.254C432.225 418.855 426.765 417.866 425.263 415.041C424.168 412.961 422.6 412.459 420.691 412.09C418.146 411.588 416.821 412.665 417.391 415.041C417.953 417.909 419.584 420.458 421.956 422.175C423.243 423.068 424.427 424.004 423.872 425.937C423.517 427.169 422.859 428.763 424.508 429.493C425.954 430.029 427.469 430.357 429.007 430.467C429.392 430.511 430.228 429.899 430.242 429.552C430.435 425.701 433.409 425.576 436.161 424.565C443.405 421.909 445.854 415.137 443.671 409.884C442.191 406.336 439.787 403.761 436.073 402.551C434.415 402.013 432.64 401.813 431.078 401.076C430.166 400.717 429.402 400.059 428.914 399.21C428.426 398.362 428.242 397.372 428.393 396.406C428.615 394.65 429.081 392.997 431.115 392.378C433.683 391.603 438.965 393.071 440.312 395.52C441.414 397.549 443.005 398.036 444.921 398.471C446.682 398.87 447.444 398.132 447.614 396.472C447.87 394.743 447.573 392.978 446.766 391.428C445.958 389.877 444.681 388.619 443.116 387.833C440.963 386.66 440.386 385.45 441.104 383.281C441.74 381.304 441.488 379.784 439.15 379.659Z" fill="#D6FB5E"/>
<path d="M397.807 82.8422C393.416 82.8436 389.123 81.542 385.471 79.102C381.819 76.6619 378.973 73.193 377.291 69.1342C375.61 65.0753 375.17 60.6087 376.026 56.2995C376.883 51.9902 378.997 48.0319 382.102 44.9251C385.207 41.8184 389.164 39.7028 393.471 38.846C397.778 37.9892 402.242 38.4297 406.299 40.1117C410.356 41.7937 413.823 44.6417 416.262 48.2955C418.701 51.9492 420.002 56.2446 420 60.6382C419.992 66.5247 417.652 72.1679 413.491 76.3302C409.331 80.4926 403.691 82.8344 397.807 82.8422ZM397.807 39.8315C393.694 39.8301 389.673 41.0492 386.252 43.3345C382.831 45.6199 380.164 48.869 378.589 52.6708C377.014 56.4726 376.601 60.6563 377.403 64.6929C378.204 68.7295 380.184 72.4375 383.092 75.3481C386.001 78.2587 389.706 80.2411 393.74 81.0445C397.775 81.8479 401.956 81.4363 405.757 79.8617C409.557 78.2871 412.805 75.6203 415.091 72.1985C417.376 68.7767 418.596 64.7537 418.596 60.6382C418.59 55.123 416.399 49.8352 412.501 45.9347C408.604 42.0341 403.32 39.8393 397.807 39.8315Z" fill="#EBEBEB"/>
<path d="M394.8 111.657C406.729 111.657 416.4 101.982 416.4 90.0461C416.4 78.1106 406.729 68.4351 394.8 68.4351C382.87 68.4351 373.2 78.1106 373.2 90.0461C373.2 101.982 382.87 111.657 394.8 111.657Z" fill="#D6FB5E"/>
<path d="M33.6 337.372C45.5294 337.372 55.2 327.696 55.2 315.761C55.2 303.825 45.5294 294.15 33.6 294.15C21.6706 294.15 12 303.825 12 315.761C12 327.696 21.6706 337.372 33.6 337.372Z" fill="#D6FB5E"/>
<path d="M21.6 368.588C33.5293 368.588 43.2 359.181 43.2 347.577C43.2 335.973 33.5293 326.566 21.6 326.566C9.67064 326.566 0 335.973 0 347.577C0 359.181 9.67064 368.588 21.6 368.588Z" fill="#303030"/>
<path d="M447.6 175.289C459.529 175.289 469.2 165.882 469.2 154.278C469.2 142.674 459.529 133.268 447.6 133.268C435.671 133.268 426 142.674 426 154.278C426 165.882 435.671 175.289 447.6 175.289Z" fill="#303030"/>
<path d="M153.6 57.6294C165.529 57.6294 175.2 47.9538 175.2 36.0184C175.2 24.0829 165.529 14.4073 153.6 14.4073C141.671 14.4073 132 24.0829 132 36.0184C132 47.9538 141.671 57.6294 153.6 57.6294Z" fill="#F45A34"/>
</g>
<defs>
<clipPath id="clip0_3547_15465">
<rect width="480" height="422" fill="white"/>
</clipPath>
</defs>
</svg>
