<svg width="30" height="30" viewBox="0 0 30 30" fill="none" xmlns="http://www.w3.org/2000/svg">
<path fill-rule="evenodd" clip-rule="evenodd" d="M15.0012 0.915771C22.8949 0.915771 29.2925 7.22063 29.2925 14.9999C29.2925 22.7792 22.8949 29.0841 15.0012 29.0841C7.10753 29.0841 0.709961 22.7792 0.709961 14.9999C0.709961 7.22063 7.10753 0.915771 15.0012 0.915771Z" fill="url(#paint0_radial_1764_2181)"/>
<path d="M9.79242 11.7925C12.6674 9.02521 17.3344 9.02521 20.2094 11.7925L20.5555 12.1281C20.7007 12.2657 20.7007 12.4912 20.5555 12.6288L19.372 13.7676C19.2995 13.8391 19.1822 13.8391 19.1097 13.7676L18.6351 13.311C16.6254 11.3799 13.3764 11.3799 11.3667 13.311L10.8587 13.8006C10.7861 13.8721 10.6689 13.8721 10.5963 13.8006L9.41281 12.6618C9.26766 12.5242 9.26766 12.2987 9.41281 12.1611L9.79242 11.7925ZM22.6601 14.1472L23.7152 15.1595C23.8604 15.2971 23.8604 15.5226 23.7152 15.6602L18.9645 20.232C18.8194 20.3695 18.5849 20.3695 18.4453 20.232L15.0735 16.9861C15.04 16.953 14.9786 16.953 14.9451 16.9861L11.5732 20.232C11.4281 20.3695 11.1936 20.3695 11.0541 20.232L6.28659 15.6602C6.14145 15.5226 6.14145 15.2971 6.28659 15.1595L7.34169 14.1472C7.48684 14.0097 7.7213 14.0097 7.86087 14.1472L11.2327 17.3932C11.2662 17.4262 11.3276 17.4262 11.3611 17.3932L14.733 14.1472C14.8781 14.0097 15.1126 14.0097 15.2521 14.1472L18.624 17.3932C18.6575 17.4262 18.7189 17.4262 18.7524 17.3932L22.1242 14.1472C22.2805 14.0097 22.515 14.0097 22.6601 14.1472Z" fill="white"/>
<defs>
<radialGradient id="paint0_radial_1764_2181" cx="0" cy="0" r="1" gradientUnits="userSpaceOnUse" gradientTransform="translate(0.71005 15.0004) scale(28.5825 28.1683)">
<stop stop-color="#5D9DF6"/>
<stop offset="1" stop-color="#006FFF"/>
</radialGradient>
</defs>
</svg>
