<svg width="18" height="18" viewBox="0 0 18 18" fill="none" xmlns="http://www.w3.org/2000/svg">
    <path d="M8.12641 13.25C7.76125 13.2521 7.41049 13.1086 7.15109 12.8516L4.40392 10.1035C4.05562 9.75474 3.91948 9.24684 4.04703 8.7708C4.17458 8.29448 4.54618 7.92273 5.02235 7.79514C5.4982 7.66755 6.00592 7.80373 6.35457 8.15215L8.12641 9.93842L12.6454 5.40405C12.994 5.05563 13.5018 4.91945 13.9776 5.04704C14.4538 5.17463 14.8254 5.54637 14.953 6.0227C15.0805 6.49871 14.9444 7.0066 14.5961 7.35537L9.10175 12.8516C8.84236 13.1086 8.49161 13.2521 8.12642 13.25H8.12641Z" fill="#FFF"/>
</svg>
