<svg width="13" height="14" viewBox="0 0 13 14" fill="none" xmlns="http://www.w3.org/2000/svg">
<path fill-rule="evenodd" clip-rule="evenodd" d="M1.60808 4.70258H7.55401C8.43842 4.70258 9.16209 5.42635 9.16209 6.31066V12.2566C9.16209 13.141 8.43832 13.8647 7.55401 13.8647H1.60808C0.723669 13.8647 0 13.1409 0 12.2566V6.31066C0 5.42625 0.723777 4.70258 1.60808 4.70258ZM5.44599 0.000134264H11.3919C12.2763 0.000134264 13 0.723911 13 1.60821V7.55415C13 8.43856 12.2762 9.16223 11.3919 9.16223H9.83755V6.31052C9.83755 5.05484 8.81015 4.02744 7.55447 4.02744H3.83823V1.60808C3.83823 0.723669 4.56201 0 5.44631 0L5.44599 0.000134264Z" fill="#0096EF"/>
</svg>
