<svg width="21" height="18" viewBox="0 0 21 18" fill="none" xmlns="http://www.w3.org/2000/svg">
<path fill-rule="evenodd" clip-rule="evenodd" d="M18.8611 5.95421L17.3993 1.99661C16.8645 0.9627 16.0444 0.320829 15.0817 0H5.91858C4.95591 0.32092 4.17156 0.96267 3.60105 1.99661L2.1392 5.95421H0.249577C0.106977 5.95421 0 6.06119 0 6.20379V6.98814C0 7.13074 0.106977 7.27334 0.249577 7.27334H1.35485C1.03393 7.6655 0.7131 8.12906 0.392181 8.73518C0.392181 11.124 0.35656 13.5129 0.35656 15.9374C0.35656 16.5435 0.855705 17.0783 1.49746 17.0783H2.28181C2.92356 17.0783 3.4227 16.5435 3.4227 15.9374V14.4755H17.5773V15.9374C17.5773 16.5435 18.0764 17.0783 18.7182 17.0783H19.5025C20.1443 17.0783 20.6434 16.5435 20.6434 15.9374C20.6434 13.5129 20.6078 11.124 20.6078 8.73518C20.2869 8.12906 19.9661 7.66553 19.6452 7.27334H20.7504C20.893 7.27334 21 7.13074 21 6.98814V6.20379C21 6.06119 20.893 5.95421 20.7504 5.95421H18.8608H18.8611ZM14.9035 1.56874C15.5096 1.67572 15.9018 2.06788 16.1158 2.56703C16.5435 3.74367 17.0071 5.09853 17.3993 6.27516H3.60117C3.99333 5.09853 4.49251 3.74367 4.88467 2.56703C5.13424 2.06788 5.4908 1.67569 6.09693 1.56874H14.9035ZM3.99318 8.84228C4.70629 8.84228 5.27668 9.41279 5.27668 10.1258C5.27668 10.8389 4.70617 11.4093 3.99318 11.4093C3.31569 11.4093 2.7453 10.8388 2.7453 10.1258C2.7453 9.41267 3.31581 8.84228 3.99318 8.84228ZM17.0069 8.84228C16.2938 8.84228 15.7234 9.41279 15.7234 10.1258C15.7234 10.8389 16.2939 11.4093 17.0069 11.4093C17.6844 11.4093 18.2548 10.8388 18.2548 10.1258C18.2548 9.41267 17.6843 8.84228 17.0069 8.84228Z" fill="white"/>
</svg>
