<svg width="13" height="13" viewBox="0 0 13 13" fill="none" xmlns="http://www.w3.org/2000/svg">
<path fill-rule="evenodd" clip-rule="evenodd" d="M1.47727 0H11.5227C12.3376 0 13 0.662768 13 1.47912V11.5209C13 12.3387 12.338 13 11.5209 13H1.47912C0.661344 13 0 12.338 0 11.5209V1.47912C0 0.661555 0.660921 0 1.47727 0ZM10.0006 3.64929C10.0031 3.24204 9.67436 2.91476 9.26403 2.91846L4.37901 2.96277C3.59173 2.96359 3.59051 4.14411 4.37777 4.14327L7.66702 4.13853C7.82901 4.13811 7.8659 4.23209 7.75111 4.34709L3.20697 8.89123C2.97573 9.12247 2.97326 9.49507 3.20511 9.72695C3.43552 9.95736 3.80937 9.95695 4.04104 9.72509L8.58497 5.18116C8.70059 5.06575 8.79395 5.10367 8.79374 5.26525L8.789 8.55429C8.78797 9.34136 9.96866 9.34031 9.9695 8.55305L10.0006 3.64929Z" fill="#0096EF"/>
</svg>
