<svg width="56" height="56" viewBox="0 0 56 56" fill="none" xmlns="http://www.w3.org/2000/svg">
<g clip-path="url(#clip0_4716_2917)">
<path d="M16 0.5H40C48.5604 0.5 55.5 7.43959 55.5 16V40C55.5 48.5604 48.5604 55.5 40 55.5H16C7.43959 55.5 0.5 48.5604 0.5 40V16C0.5 7.43959 7.43959 0.5 16 0.5Z" fill="white" stroke="#EBEBEB"/>
<path d="M17.881 21.88L28.0015 16.5375L38.1193 21.88V14.491L27.9989 9.14844L11.3467 17.9411V30.7485L17.881 34.196V21.88Z" fill="#0096EF"/>
<path d="M38.1191 21.8789V26.9287L28.1659 32.1823V39.4433L27.9987 39.5322L22.9698 36.8766L17.8809 34.1897V41.5787L28.0013 46.9214L34.7003 43.3822V36.1212L44.6533 30.8676V25.3291L38.1191 21.8789Z" fill="#0096EF"/>
<path d="M17.881 21.88L28.0015 16.5375L38.1193 21.88V14.491L27.9989 9.14844L11.3467 17.9411V30.7485L17.881 34.196V21.88Z" fill="#0096EF"/>
<path d="M38.1191 21.8789V26.9287L28.1659 32.1823V39.4433L27.9987 39.5322L22.9698 36.8766L17.8809 34.1897V41.5787L28.0013 46.9214L34.7003 43.3822V36.1212L44.6533 30.8676V25.3291L38.1191 21.8789Z" fill="#0096EF"/>
</g>
<defs>
<clipPath id="clip0_4716_2917">
<rect width="56" height="56" fill="white"/>
</clipPath>
</defs>
</svg>
