<svg width="16" height="20" viewBox="0 0 16 20" fill="none" xmlns="http://www.w3.org/2000/svg">
<path d="M6.39745 17.143C6.11386 17.1731 5.87324 17.2031 5.63261 17.2289C4.38222 17.3535 3.29082 17.0141 2.46582 16.0387C2.20801 15.7336 2.06191 15.3383 1.84277 14.9988C1.50332 14.466 1.15527 13.9375 0.781445 13.4262C0.652539 13.25 0.429101 13.1469 0.257227 12.9965C0.201367 12.9492 0.18418 12.859 0.145508 12.7859C0.222851 12.7559 0.295898 12.7043 0.373242 12.6957C1.36152 12.6055 2.05762 13.0609 2.54316 13.8816C3.14902 14.9043 4.02558 15.4629 5.21581 15.4629C5.55956 15.4629 5.90331 15.3469 6.24277 15.2695C6.30722 15.2524 6.38456 15.1535 6.39316 15.0805C6.45331 14.6336 6.50917 14.1867 6.71542 13.7785C6.79277 13.6281 6.883 13.4863 6.97323 13.3316C6.62519 13.2629 6.29003 13.2113 5.95917 13.1297C4.43378 12.743 3.1748 11.9781 2.44433 10.5258C2.16074 9.9586 2.00176 9.34844 1.98027 8.7125C1.9459 7.73282 1.95879 6.74883 2.15644 5.78203C2.29824 5.10313 2.55605 4.47149 3.07168 3.98164C3.1834 3.87422 3.20488 3.77969 3.14472 3.61641C2.85683 2.81289 2.82676 1.99649 3.07168 1.17578C3.12324 0.99961 3.1705 0.823438 3.22207 0.638672C4.39941 0.862109 5.0998 1.65703 5.75722 2.53789C6.43613 2.03516 7.23964 1.99219 8.02167 1.94063C8.94979 1.88047 9.88222 1.89336 10.806 2.04375C11.2873 2.12109 11.5838 2.21992 12.0521 2.49922C12.456 2.08242 12.8342 1.66133 13.251 1.27891C13.5818 0.973828 13.9943 0.780469 14.4412 0.677344C14.5658 0.647266 14.6303 0.660156 14.6818 0.797656C15.0299 1.74727 15.0814 2.69258 14.699 3.64219C14.6474 3.7711 14.6517 3.86133 14.7592 3.96445C15.3779 4.55313 15.6615 5.31367 15.756 6.13438C15.842 6.89493 15.8892 7.65977 15.8892 8.42461C15.8892 9.51172 15.567 10.5086 14.8838 11.3637C14.4025 11.9695 13.7795 12.4035 13.0748 12.7301C12.3916 13.0438 11.6783 13.2242 10.9392 13.3188C10.9221 13.3231 10.9049 13.3359 10.8748 13.3488C11.3818 14.075 11.4635 14.8914 11.4549 15.7379C11.442 16.9711 11.4463 18.2 11.4549 19.4332C11.4549 19.6266 11.399 19.6738 11.2099 19.6738C9.68456 19.6652 8.15917 19.6652 6.63378 19.6738C6.44472 19.6738 6.38456 19.6137 6.38456 19.4289C6.39316 18.7629 6.38886 18.0969 6.38886 17.4309C6.39745 17.332 6.39745 17.2461 6.39745 17.143Z" fill="#49C7DA"/>
</svg>
