<svg width="23" height="16" viewBox="0 0 23 16" fill="none" xmlns="http://www.w3.org/2000/svg">
<path d="M6.50104 12.0371H6.50793H6.51482C8.09849 12.0371 9.98316 11.6972 9.98316 10.9909C9.98316 8.41077 9.03695 9.68534 7.62497 8.58899L6.8952 10.153L6.70837 9.58268C6.74763 9.55375 6.7738 9.50795 6.78086 9.44441L6.91844 9.11552C6.91844 9.01995 6.83476 8.94298 6.73161 8.94298H6.28392C6.18077 8.94298 6.09709 9.02029 6.09709 9.11552L6.23484 9.44441C6.24225 9.50777 6.26825 9.55358 6.30733 9.58268L6.1205 10.153L5.39055 8.58899C3.97924 9.68517 3.03271 8.4106 3.03271 10.9909C3.03271 11.6972 4.91773 12.0371 6.50106 12.0371H6.50104Z" fill="white"/>
<path d="M4.99052 7.11455C5.2619 7.85393 5.84236 8.5517 6.51513 8.5517C7.18874 8.5517 7.76991 7.85191 8.04128 7.11182C8.14597 7.08065 8.25549 6.88229 8.30043 6.62899C8.34882 6.35331 8.30284 6.11275 8.19746 6.07348C8.19247 5.98411 8.1842 5.89354 8.17181 5.80296C8.12927 5.02395 7.8913 4.67562 7.53967 4.52027C7.29051 4.31984 6.95731 4.19534 6.5153 4.19534C6.07449 4.19534 5.74233 4.31708 5.49437 4.51252C5.10711 4.6749 4.85329 5.06266 4.83901 5.98185C4.8366 6.01095 4.83454 6.04005 4.83316 6.06916C4.7183 6.09154 4.66596 6.34088 4.71658 6.62877C4.76308 6.89464 4.88137 7.09921 4.99054 7.11455H4.99052Z" fill="white"/>
<path d="M19.8987 0.928574H2.45914C1.14185 0.928574 0.0703125 1.98393 0.0703125 3.2809V12.952C0.0703125 14.2493 1.14189 15.3043 2.45914 15.3043H19.8987C21.2157 15.3043 22.2874 14.2493 22.2874 12.952L22.2872 3.2809C22.2872 1.98393 21.2157 0.928574 19.8985 0.928574H19.8987ZM11.1789 13.997H2.45914C1.86179 13.997 1.37724 13.529 1.37724 12.9516L1.37707 3.28055C1.37707 2.70317 1.86162 2.23515 2.45897 2.23515L11.1788 2.23498L11.1789 13.997ZM16.2474 10.8824H12.8123C12.4877 10.8824 12.2243 10.6193 12.2243 10.2942C12.2243 9.96957 12.4874 9.70611 12.8123 9.70611H16.2474C16.572 9.70611 16.8357 9.96922 16.8357 10.2942C16.8357 10.6193 16.5722 10.8824 16.2474 10.8824ZM19.3469 8.70431H12.8122C12.4877 8.70431 12.2242 8.44085 12.2242 8.11609C12.2242 7.79115 12.4873 7.52804 12.8122 7.52804H19.3469C19.6718 7.52804 19.9351 7.79115 19.9351 8.11609C19.9351 8.44102 19.6718 8.70431 19.3469 8.70431ZM19.3469 6.52606H12.8122C12.4877 6.52606 12.2242 6.26295 12.2242 5.93801C12.2242 5.61308 12.4873 5.34979 12.8122 5.34979H19.3469C19.6718 5.34979 19.9351 5.6129 19.9351 5.93801C19.9351 6.26277 19.6718 6.52606 19.3469 6.52606Z" fill="white"/>
</svg>
