<svg width="16" height="22" viewBox="0 0 16 22" fill="none" xmlns="http://www.w3.org/2000/svg">
<path d="M11.7008 4.66809C11.0844 3.94788 10.2685 3.40083 9.3374 3.11798C9.67204 3.62651 9.94911 4.31748 10.1373 5.13862C10.7347 5.02306 11.2663 4.8647 11.7008 4.66809Z" fill="white"/>
<path d="M14.5155 0.0714264H1.32486C0.751574 0.0714264 0.286133 0.537138 0.286133 1.11104V20.5985C0.286133 21.1669 0.751381 21.6378 1.32486 21.6378H14.5155C15.0888 21.6378 15.5566 21.1671 15.5566 20.5985L15.5565 1.11143C15.5568 0.537369 15.0888 0.0714264 14.5155 0.0714264ZM11.4628 19.5234H4.37991C4.17575 19.5234 4.01559 19.3634 4.01559 19.1586C4.01559 18.9639 4.1756 18.796 4.37991 18.796H11.4628C11.6662 18.796 11.8271 18.9638 11.8271 19.1586C11.8271 19.3632 11.6662 19.5234 11.4628 19.5234ZM11.4628 17.4645H4.37991C4.17575 17.4645 4.01559 17.3055 4.01559 17.102C4.01559 16.8983 4.1756 16.7389 4.37991 16.7389H11.4628C11.6662 16.7389 11.8271 16.8983 11.8271 17.102C11.8271 17.3054 11.6662 17.4645 11.4628 17.4645ZM12.5743 11.0809V11.0878C12.5743 11.0949 12.5672 11.0949 12.5593 11.1022C11.5345 12.5638 9.8399 13.5237 7.9219 13.5237C4.79507 13.5237 2.24843 10.9792 2.24843 7.85216C2.24843 6.65298 2.62736 5.54119 3.26621 4.623V4.61758H3.27329C4.3001 3.14808 5.99439 2.1811 7.92154 2.1811C11.0466 2.1811 13.5927 4.72562 13.5927 7.85225C13.5928 9.05248 13.2143 10.1639 12.5743 11.0809Z" fill="white"/>
<path d="M8.28467 10.3751V12.6738C8.72114 12.3813 9.1489 11.5957 9.41998 10.4634C9.04135 10.4179 8.66151 10.3893 8.28467 10.3751V10.3751Z" fill="white"/>
<path d="M9.3374 12.5922C10.2686 12.3091 11.0918 11.7643 11.7008 11.037C11.2662 10.8404 10.7347 10.6874 10.1371 10.5717C9.94896 11.3924 9.67174 12.0834 9.3374 12.5922V12.5922Z" fill="white"/>
<path d="M10.2754 9.85864C10.9878 9.99846 11.6139 10.1859 12.1306 10.4332C12.529 9.77972 12.7851 9.02924 12.8479 8.2153H10.4213C10.4067 8.79781 10.3548 9.35015 10.2754 9.85864H10.2754Z" fill="white"/>
<path d="M9.69584 8.21512H8.28467V9.64739C8.71408 9.6617 9.14184 9.69108 9.55691 9.7509C9.63089 9.27763 9.67985 8.76899 9.69583 8.21514L9.69584 8.21512Z" fill="white"/>
<path d="M9.55691 5.96136C9.14905 6.01184 8.72897 6.04966 8.28467 6.06412V7.48795H9.69584C9.68002 6.94266 9.63105 6.43418 9.55692 5.96137L9.55691 5.96136Z" fill="white"/>
<path d="M10.4213 7.48763H12.8479C12.7851 6.68125 12.529 5.92533 12.1306 5.27023C11.6139 5.51733 10.9878 5.71365 10.2754 5.85301C10.3548 6.36211 10.4066 6.91449 10.4212 7.48763H10.4213Z" fill="white"/>
<path d="M8.28467 3.03796V5.32845C8.67655 5.32137 9.05563 5.29259 9.41998 5.2489C9.14893 4.11359 8.72134 3.32183 8.28467 3.03798V3.03796Z" fill="white"/>
<path d="M6.42188 5.24859C6.79388 5.29228 7.1707 5.32091 7.55703 5.32814L7.55688 3.03781C7.11346 3.32167 6.69296 4.11345 6.42188 5.24857L6.42188 5.24859Z" fill="white"/>
<path d="M6.50255 3.11813C5.57139 3.39552 4.75615 3.94804 4.13916 4.66824C4.58289 4.86487 5.11263 5.02307 5.70342 5.13893C5.89086 4.31763 6.1669 3.62635 6.50259 3.11813H6.50255Z" fill="white"/>
<path d="M5.56472 5.85298C4.85883 5.71361 4.22572 5.51729 3.71044 5.2702C3.31057 5.9253 3.05473 6.68138 2.99023 7.4876H5.41873C5.43335 6.91446 5.48548 6.36208 5.56473 5.85298H5.56472Z" fill="white"/>
<path d="M6.14648 7.48765H7.5572V6.06382C7.12088 6.04951 6.69327 6.01892 6.28345 5.96875C6.21279 6.434 6.16096 6.94252 6.14649 7.48765L6.14648 7.48765Z" fill="white"/>
<path d="M6.28345 9.74292C6.69327 9.69108 7.11378 9.65462 7.55719 9.64739V8.21512H6.14648C6.16125 8.7616 6.21308 9.27765 6.28344 9.74289L6.28345 9.74292Z" fill="white"/>
<path d="M7.55703 12.674V10.3753C7.16349 10.3823 6.78695 10.411 6.42188 10.4636C6.69308 11.5962 7.11361 12.3815 7.55703 12.674V12.674Z" fill="white"/>
<path d="M4.1392 11.037C4.75634 11.7643 5.57147 12.3092 6.50259 12.5922C6.16689 12.0835 5.89088 11.3923 5.70342 10.5717C5.11282 10.682 4.58289 10.8405 4.13916 11.037L4.1392 11.037Z" fill="white"/>
<path d="M5.41824 8.21509H2.98975C3.05408 9.02902 3.31022 9.78672 3.70995 10.4418C4.23248 10.1857 4.85834 9.99042 5.56424 9.85842C5.48528 9.34284 5.43315 8.79756 5.41823 8.21509H5.41824Z" fill="white"/>
</svg>
