<svg width="18" height="12" viewBox="0 0 18 12" fill="none" xmlns="http://www.w3.org/2000/svg">
<path d="M17.0997 4.8233H17.5382L17.5381 0H0V4.82292H0.438508C1.39039 4.82292 1.64422 5.64988 1.64422 6.1383C1.64422 6.62686 1.39025 7.45382 0.438358 7.45382H0V11.3999H17.5385V7.45382H17.1C16.1481 7.45382 15.8943 6.62686 15.8943 6.13845C15.8941 5.65003 16.1481 4.82307 17.1 4.82307L17.0997 4.8233ZM7.01493 2.6309C7.74016 2.6309 8.33031 3.22105 8.33031 3.94628C8.33031 4.6715 7.74016 5.26165 7.01493 5.26165C6.28971 5.26165 5.69956 4.6715 5.69956 3.94628C5.69956 3.22105 6.28971 2.6309 7.01493 2.6309ZM5.82801 8.02094L11.0895 2.75943L11.7095 3.37939L6.44797 8.64089L5.82801 8.02094ZM10.5228 8.7695C9.79755 8.7695 9.2074 8.17934 9.2074 7.45412C9.2074 6.7289 9.79755 6.13875 10.5228 6.13875C11.248 6.13875 11.8382 6.7289 11.8382 7.45412C11.8382 8.17934 11.248 8.7695 10.5228 8.7695Z" fill="#303030"/>
</svg>
