<svg width="30" height="30" viewBox="0 0 30 30" fill="none" xmlns="http://www.w3.org/2000/svg">
<path d="M16.6922 14.8863C16.6922 18.1372 14.0748 20.7725 10.8462 20.7725C7.61763 20.7725 5 18.1372 5 14.8863C5 11.6355 7.61743 9 10.8462 9C14.075 9 16.6922 11.6355 16.6922 14.8863Z" fill="#49C7DA"/>
<path d="M23.106 14.8853C23.106 17.9452 21.7973 20.4268 20.1829 20.4268C18.5685 20.4268 17.2598 17.9452 17.2598 14.8853C17.2598 11.8253 18.5683 9.34375 20.1827 9.34375C21.7971 9.34375 23.1058 11.8245 23.1058 14.8853" fill="#49C7DA"/>
<path d="M25.7288 14.8843C25.7288 17.6252 25.2686 19.8486 24.7007 19.8486C24.1329 19.8486 23.6729 17.6258 23.6729 14.8843C23.6729 12.1427 24.1331 9.91992 24.7007 9.91992C25.2684 9.91992 25.7288 12.1425 25.7288 14.8843Z" fill="#49C7DA"/>
</svg>
