<svg width="66" height="66" viewBox="0 0 66 66" fill="none" xmlns="http://www.w3.org/2000/svg">
<path d="M34.1128 15.4893H25.3574L31.8877 0H40.643L34.1128 15.4893Z" fill="#0096EF"/>
<path opacity="0.4" d="M34.1128 66H25.3574L31.8877 50.5107H40.643L34.1128 66Z" fill="#0096EF"/>
<path opacity="0.2" d="M50.5107 34.1125V25.3572L66 31.8874V40.6428L50.5107 34.1125Z" fill="#0096EF"/>
<path opacity="0.7" d="M0 34.1125V25.3572L15.4893 31.8874V40.6428L0 34.1125Z" fill="#0096EF"/>
<path opacity="0.1" d="M46.1679 21.4047L39.9771 15.2139L55.5474 8.87982L61.7382 15.0706L46.1679 21.4047Z" fill="#0096EF"/>
<path opacity="0.5" d="M10.4506 57.1202L4.26172 50.9294L19.8321 44.5952L26.0229 50.786L10.4506 57.1202Z" fill="#0096EF"/>
<path opacity="0.3" d="M44.5952 46.1679L50.786 39.9771L57.1201 55.5475L50.9293 61.7383L44.5952 46.1679Z" fill="#0096EF"/>
<path opacity="0.8" d="M8.87988 10.4525L15.0707 4.2617L21.4048 19.832L15.214 26.0228L8.87988 10.4525Z" fill="#0096EF"/>
</svg>
