<svg width="95" height="95" viewBox="0 0 95 95" fill="none" xmlns="http://www.w3.org/2000/svg">
<circle cx="47.5" cy="47.5" r="47.5" fill="#0096EF"/>
<path d="M55.0947 74.8337C50.8388 74.8337 46.757 73.143 43.7471 70.1336C40.7377 67.1237 39.047 63.042 39.047 58.786C39.047 54.53 40.7377 50.4483 43.7471 47.4384C46.757 44.429 50.8388 42.7383 55.0947 42.7383C59.3507 42.7383 63.4324 44.429 66.4423 47.4384C69.4517 50.4483 71.1425 54.53 71.1425 58.786C71.1425 63.042 69.4517 67.1237 66.4423 70.1336C63.4324 73.143 59.3507 74.8337 55.0947 74.8337ZM55.0947 46.7502C51.9026 46.7502 48.8413 48.0182 46.5842 50.2754C44.327 52.5327 43.0589 55.5939 43.0589 58.786C43.0589 61.9781 44.3269 65.0395 46.5842 67.2966C48.8414 69.5537 51.9026 70.8218 55.0947 70.8218C58.2868 70.8218 61.3482 69.5538 63.6053 67.2966C65.8624 65.0394 67.1305 61.9781 67.1305 58.786C67.1305 55.5939 65.8625 52.5326 63.6053 50.2754C61.3481 48.0183 58.2868 46.7502 55.0947 46.7502Z" fill="white"/>
<path d="M53.0889 64.8048C52.5556 64.808 52.0434 64.5984 51.6646 64.2232L47.6526 60.2113C47.144 59.7022 46.9452 58.9607 47.1314 58.2657C47.3177 57.5703 47.8604 57.0276 48.5558 56.8414C49.2507 56.6551 49.9922 56.8539 50.5013 57.3625L53.0889 59.9703L59.6884 53.3506C60.1975 52.842 60.939 52.6432 61.634 52.8294C62.3294 53.0157 62.8721 53.5584 63.0583 54.2538C63.2446 54.9487 63.0458 55.6902 62.5371 56.1993L54.5133 64.2232C54.1345 64.5984 53.6222 64.808 53.0889 64.8048H53.0889Z" fill="white"/>
<path d="M41.055 38.7267C38.3948 38.7267 35.8439 37.6699 33.9629 35.7889C32.0819 33.9078 31.0251 31.357 31.0251 28.6968C31.0251 26.0367 32.0819 23.4858 33.9629 21.6048C35.844 19.7237 38.3948 18.667 41.055 18.667C43.7151 18.667 46.266 19.7237 48.147 21.6048C50.0281 23.4858 51.0848 26.0367 51.0848 28.6968C51.0848 31.357 50.0281 33.9079 48.147 35.7889C46.266 37.6699 43.7151 38.7267 41.055 38.7267ZM41.055 22.6789C39.4587 22.6789 37.9283 23.3129 36.7995 24.4413C35.6711 25.5701 35.0371 27.1005 35.0371 28.6968C35.0371 30.2931 35.6711 31.8235 36.7995 32.9523C37.9283 34.0807 39.4587 34.7147 41.055 34.7147C42.6513 34.7147 44.1817 34.0807 45.3105 32.9523C46.4389 31.8235 47.0729 30.2931 47.0729 28.6968C47.0729 27.1005 46.4389 25.5702 45.3105 24.4413C44.1817 23.3129 42.6513 22.6789 41.055 22.6789Z" fill="white"/>
<path d="M37.0418 68.8188H25.006C24.474 68.8188 23.9636 68.6074 23.5875 68.2313C23.2113 67.8552 23 67.3447 23 66.8128V58.7889C23 54.0006 24.9021 49.4088 28.2876 46.023C31.6736 42.6375 36.2654 40.7354 41.0536 40.7354C41.7704 40.7354 42.4326 41.1177 42.7909 41.7383C43.1491 42.3589 43.1491 43.1237 42.7909 43.7443C42.4326 44.3649 41.7704 44.7473 41.0536 44.7473C37.3296 44.7473 33.7578 46.2267 31.1245 48.86C28.4912 51.4933 27.0118 55.0651 27.0118 58.789V64.8069H37.0416C37.7585 64.8069 38.4207 65.1893 38.7789 65.8099C39.1371 66.4305 39.1371 67.1953 38.7789 67.8159C38.4207 68.4365 37.7585 68.8189 37.0416 68.8189L37.0418 68.8188Z" fill="white"/>
</svg>
