<svg width="20" height="20" viewBox="0 0 20 20" fill="none" xmlns="http://www.w3.org/2000/svg">
<path d="M19.4434 4.25011C18.1795 1.49529 16.0135 0.092842 13.0013 0.0205728C11.6473 -0.0174401 10.2973 0.00659764 8.94516 0.0186162C8.02705 0.0265823 7.09511 -0.0314141 6.20114 0.106799C3.24312 0.55959 1.29111 2.26053 0.377177 5.09767C-0.106791 6.60029 -0.0688263 8.17909 0.177118 9.70572C0.633193 12.4685 2.2791 14.3138 4.90501 15.2615L4.90515 15.2614C5.36554 15.4039 5.83276 15.523 6.30512 15.618V15.8184C6.30512 16.768 6.29508 17.7198 6.30512 18.6694C6.30512 18.9089 6.35981 19.1454 6.46514 19.3606C6.87711 20.1239 7.87515 20.2201 8.48512 19.561C9.6012 18.3728 10.7192 17.1808 11.8131 15.9748C12.009 15.7231 12.3176 15.5863 12.6353 15.6102C13.544 15.6581 14.4534 15.5263 15.3114 15.222C16.1693 14.9178 16.959 14.4471 17.6353 13.8369C18.9293 12.691 19.7453 11.2564 19.9254 9.52942H19.9252C20.0013 8.54627 20.0194 7.55947 19.9792 6.57418C19.9635 5.77074 19.7808 4.97918 19.4432 4.25022L19.4434 4.25011ZM10.2016 13.0172C9.91156 13.0231 9.63127 12.9127 9.42284 12.7106C9.21441 12.5085 9.09513 12.2315 9.09165 11.941C9.08802 11.6504 9.20047 11.3705 9.40373 11.1634C9.60714 10.9561 9.88463 10.8389 10.1747 10.8376C10.4647 10.8364 10.7433 10.9511 10.9485 11.1565C11.1537 11.3618 11.2686 11.6408 11.2676 11.9313C11.2691 12.2167 11.1579 12.4911 10.9582 12.6945C10.7584 12.898 10.4863 13.014 10.2016 13.0172L10.2016 13.0172ZM11.0495 8.67356C10.9522 8.7166 10.8938 8.81792 10.9056 8.92399C10.9156 9.26261 10.9056 9.60125 10.9056 9.95776H9.23548C9.23548 9.90564 9.22348 9.8556 9.22348 9.80543V8.14657C9.21916 8.05629 9.27565 7.97411 9.36146 7.9463C9.93832 7.69419 10.4404 7.29742 10.8195 6.79418C11.0231 6.53005 11.1648 6.22329 11.2335 5.89668C11.2979 5.60907 11.2489 5.30776 11.0968 5.05536C10.9449 4.8031 10.7015 4.61931 10.4175 4.54232C9.68956 4.33199 8.96745 4.69059 8.78945 5.35373C8.7635 5.4559 8.74941 5.55414 8.72946 5.67433H7.02145C7.05005 5.42319 7.09134 5.17374 7.14547 4.92691C7.31065 4.34568 7.65091 3.82971 8.11994 3.44958C8.58884 3.06945 9.16363 2.84374 9.76546 2.80324C10.4519 2.7416 11.1382 2.92091 11.7071 3.31055C12.2759 3.70034 12.6918 4.27595 12.8835 4.93897C13.0572 5.55723 12.9967 6.21799 12.7136 6.79418C12.3659 7.57651 11.7863 8.23266 11.0536 8.67357L11.0495 8.67356Z" fill="white"/>
</svg>
