<svg width="16" height="16" viewBox="0 0 16 16" fill="none" xmlns="http://www.w3.org/2000/svg">
<path d="M11.5998 3.80019C11.5998 4.75503 11.2205 5.67073 10.5453 6.34575C9.87033 7.02095 8.95463 7.40019 7.9998 7.40019C7.04496 7.40019 6.12926 7.02091 5.45424 6.34575C4.77905 5.67073 4.3998 4.75503 4.3998 3.80019C4.3998 2.84536 4.77909 1.92966 5.45424 1.25464C6.12926 0.579441 7.04496 0.200195 7.9998 0.200195C8.95463 0.200195 9.87033 0.579482 10.5453 1.25464C11.2205 1.92966 11.5998 2.84536 11.5998 3.80019V3.80019ZM11.1998 9.00019H4.7998C3.73891 9.00019 2.72158 9.42162 1.97141 10.1718C1.22124 10.922 0.799805 11.9393 0.799805 13.0002C0.799805 13.6368 1.05266 14.2471 1.50266 14.6973C1.95284 15.1473 2.56319 15.4002 3.1998 15.4002H12.7998C13.4364 15.4002 14.0467 15.1473 14.4969 14.6973C14.9469 14.2472 15.1998 13.6368 15.1998 13.0002C15.1998 11.9393 14.7784 10.922 14.0282 10.1718C13.278 9.42163 12.2607 9.00019 11.1998 9.00019Z" fill="#49C7DA"/>
</svg>
