<svg width="31" height="33" viewBox="0 0 31 33" fill="none" xmlns="http://www.w3.org/2000/svg">
<path d="M1.05711 29.8486H11.8136C12.1202 30.8713 12.854 31.7116 13.826 32.1531C14.7983 32.5948 15.9136 32.5948 16.8859 32.1531C17.8579 31.7115 18.5918 30.8713 18.8983 29.8486H29.5861C30.1695 29.8486 30.6427 29.3754 30.6427 28.7919C30.6427 28.2085 30.1695 27.7353 29.5861 27.7353H18.8983C18.5375 26.5295 17.5879 25.5899 16.3782 25.2417V18.9601C19.6297 18.5966 22.4659 16.5871 23.8872 13.6404C25.3082 10.6934 25.1148 7.22287 23.3751 4.45232C21.635 1.68162 18.5932 0 15.3213 0C12.0495 0 9.00783 1.68162 7.26757 4.45232C5.52783 7.22302 5.33447 10.6936 6.75547 13.6404C8.17678 16.5871 11.0129 18.5966 14.2645 18.9601V25.2577C13.0849 25.6224 12.1654 26.5519 11.8131 27.7353H1.05663C0.47318 27.7353 0 28.2085 0 28.7919C0 29.3754 0.47318 29.8486 1.05663 29.8486H1.05711ZM7.95703 9.50851C7.95703 7.5468 8.73622 5.66556 10.1233 4.27843C11.5105 2.89131 13.3917 2.11212 15.3534 2.11212C17.3148 2.11212 19.1964 2.89131 20.5832 4.27843C21.9703 5.66556 22.7498 7.5468 22.7498 9.50851C22.7498 11.4702 21.9703 13.3515 20.5832 14.7386C19.1964 16.1257 17.3148 16.9049 15.3534 16.9049C13.3917 16.9049 11.5105 16.1257 10.1233 14.7386C8.73622 13.3515 7.95703 11.4702 7.95703 9.50851V9.50851ZM15.3534 27.207C15.7735 27.207 16.1768 27.3739 16.474 27.6713C16.7712 27.9685 16.9384 28.3715 16.9384 28.792C16.9384 29.2124 16.7712 29.6154 16.474 29.9126C16.1769 30.2101 15.7736 30.3769 15.3534 30.3769C14.933 30.3769 14.5297 30.2101 14.2325 29.9126C13.9353 29.6154 13.7684 29.2124 13.7684 28.792C13.7684 28.3715 13.9353 27.9686 14.2325 27.6713C14.5297 27.3739 14.933 27.207 15.3534 27.207Z" fill="white"/>
<path d="M17.6566 13.3369C18.0694 13.7497 18.7389 13.7497 19.1517 13.3369C19.5644 12.9242 19.5644 12.2546 19.1517 11.8419L16.8324 9.52257L19.1517 7.20327C19.5644 6.79052 19.5644 6.12098 19.1517 5.70822C18.7389 5.29518 18.0694 5.29518 17.6566 5.70822L15.3214 8.03257L13.0021 5.71328V5.71357C12.5894 5.30053 11.9198 5.30053 11.507 5.71357C11.094 6.12632 11.094 6.79556 11.507 7.20862L13.8263 9.52792L11.507 11.8472C11.094 12.26 11.094 12.9295 11.507 13.3423C11.9198 13.755 12.5893 13.755 13.0021 13.3423L15.3214 11.0176L17.6566 13.3369Z" fill="white"/>
</svg>
