<svg width="18" height="18" viewBox="0 0 18 18" fill="none" xmlns="http://www.w3.org/2000/svg">
<path d="M0 9.00095C1.09521 10.4131 2.62146 11.4291 4.34694 11.8944C4.03128 9.97833 4.03128 8.02338 4.34694 6.10742C2.62157 6.57276 1.09536 7.58869 0 9.00087V9.00095Z" fill="#49C7DA"/>
<path d="M8.9999 4.1123C9.96912 4.11216 10.9368 4.19056 11.8933 4.34694C11.428 2.62157 10.4121 1.09536 8.9999 0C7.58771 1.09521 6.57179 2.62146 6.10645 4.34694C7.06305 4.19056 8.03067 4.11216 8.9999 4.1123Z" fill="#49C7DA"/>
<path d="M12.2581 5.74223C10.1076 5.30728 7.89182 5.30728 5.74125 5.74223C5.3063 7.8928 5.3063 10.1085 5.74125 12.2591C6.81363 12.4777 7.90534 12.587 8.99969 12.5849C10.094 12.587 11.1857 12.4777 12.2581 12.2591C12.4768 11.1867 12.586 10.095 12.584 9.00067C12.586 7.90632 12.4768 6.81461 12.2581 5.74223Z" fill="#49C7DA"/>
<path d="M8.9999 13.887C8.03067 13.8871 7.06301 13.8087 6.10645 13.6523C6.57179 15.3777 7.58771 16.9039 8.9999 17.9993C10.4121 16.9041 11.428 15.3778 11.8933 13.6523C10.9367 13.8087 9.96912 13.8871 8.9999 13.887Z" fill="#49C7DA"/>
<path d="M13.3467 13.3456C12.9544 15.009 12.1826 16.559 11.0918 17.8746C12.7418 17.4847 14.2507 16.643 15.4488 15.4436C16.6472 14.2441 17.4875 12.7344 17.8757 11.084C16.5608 12.1771 15.0105 12.9512 13.3467 13.3454L13.3467 13.3456Z" fill="#49C7DA"/>
<path d="M4.65325 4.65404C5.04746 2.99004 5.82148 1.43984 6.91468 0.125C5.26334 0.513703 3.75314 1.35505 2.55359 2.55456C1.35404 3.75408 0.51269 5.26431 0.124023 6.91565C1.43902 5.82249 2.98925 5.04844 4.65306 4.65422L4.65325 4.65404Z" fill="#49C7DA"/>
<path d="M17.9998 9.00087C16.9046 7.58869 15.3783 6.57276 13.6528 6.10742C13.8092 7.06402 13.8876 8.03165 13.8875 9.00087C13.8876 9.9701 13.8092 10.9378 13.6528 11.8943C15.3782 11.429 16.9044 10.4131 17.9998 9.00087Z" fill="#49C7DA"/>
<path d="M4.65306 13.3454C2.98906 12.9512 1.43887 12.1772 0.124023 11.084C0.512727 12.7353 1.35407 14.2455 2.55359 15.4451C3.7531 16.6446 5.26334 17.486 6.91468 17.8746C5.82152 16.5596 5.04746 15.0094 4.65325 13.3456L4.65306 13.3454Z" fill="#49C7DA"/>
<path d="M13.347 4.65408C15.0104 5.04639 16.5605 5.8181 17.8761 6.90895C17.4862 5.25892 16.6444 3.75002 15.445 2.55196C14.2455 1.3536 12.7359 0.513257 11.0854 0.125C12.1786 1.43999 12.9527 2.99023 13.3469 4.65404L13.347 4.65408Z" fill="#49C7DA"/>
</svg>
